<?xml version="1.0" standalone="no"?><!DOCTYPE svg PUBLIC "-//W3C//DTD SVG 1.1//EN" "http://www.w3.org/Graphics/SVG/1.1/DTD/svg11.dtd"><svg t="1722956819758" class="icon" viewBox="0 0 1024 1024" version="1.1" xmlns="http://www.w3.org/2000/svg" p-id="6436" xmlns:xlink="http://www.w3.org/1999/xlink" width="200" height="200"><path d="M904.96 826.24H119.04A119.68 119.68 0 0 1 0 707.2V183.04A119.68 119.68 0 0 1 119.04 64h785.92A119.68 119.68 0 0 1 1024 183.04v524.16a119.68 119.68 0 0 1-119.04 119.04zM119.04 128a55.68 55.68 0 0 0-55.04 55.04v524.16a55.68 55.68 0 0 0 55.04 55.04h785.92a55.68 55.68 0 0 0 55.04-55.04V183.04a55.68 55.68 0 0 0-55.04-55.04z" p-id="6437"></path><path d="M377.6 640h238.72a148.48 148.48 0 0 0 47.36-289.92A179.84 179.84 0 0 0 512 256a166.4 166.4 0 0 0-164.48 138.88 128 128 0 0 0-91.52 128A120.96 120.96 0 0 0 377.6 640z m4.48-192a33.28 33.28 0 0 0 27.52-32A100.48 100.48 0 0 1 512 320a122.88 122.88 0 0 1 100.48 70.4 30.72 30.72 0 0 0 23.04 17.28A84.48 84.48 0 0 1 704 492.8 85.76 85.76 0 0 1 616.32 576H377.6a56.96 56.96 0 0 1-57.6-53.12 64 64 0 0 1 64-70.4z m481.92 448h-704a32 32 0 0 0 0 64h704a32 32 0 0 0 0-64z m0 0" p-id="6438"></path></svg>